<svg width="60" height="60" viewBox="0 0 60 60" fill="none" xmlns="http://www.w3.org/2000/svg">
<path d="M30 0C13.432 0 0 13.432 0 30C0 46.568 13.432 60 30 60C46.568 60 60 46.568 60 30C60 13.432 46.568 0 30 0ZM37.105 43.092C35.174 45.029 32.771 46 29.897 46C27.173 46 24.914 45.184 23.121 43.553C21.328 41.92 20.288 39.785 20 37.15L25.585 36.443C25.764 37.925 26.242 39.06 27.023 39.843C27.804 40.626 28.748 41.019 29.857 41.019C31.047 41.019 32.05 40.548 32.866 39.609C33.68 38.668 34.089 37.4 34.089 35.802C34.089 34.292 33.698 33.095 32.917 32.212C32.136 31.327 31.186 30.888 30.063 30.888C29.323 30.888 28.44 31.036 27.413 31.335L28.05 26.44C29.611 26.483 30.802 26.129 31.623 25.381C32.444 24.633 32.855 23.639 32.855 22.399C32.855 21.344 32.554 20.503 31.952 19.878C31.349 19.251 30.548 18.937 29.549 18.937C28.564 18.937 27.722 19.292 27.024 20.005C26.326 20.718 25.902 21.757 25.751 23.126L20.434 22.187C20.803 20.291 21.362 18.777 22.108 17.644C22.853 16.511 23.893 15.621 25.229 14.972C26.561 14.324 28.057 14 29.713 14C32.546 14 34.819 14.939 36.529 16.822C37.939 18.361 38.644 20.097 38.644 22.037C38.644 24.787 37.2 26.982 34.312 28.621C36.037 29.006 37.416 29.867 38.45 31.207C39.483 32.547 40 34.164 40 36.061C40 38.811 39.035 41.154 37.105 43.092" fill="#55d48a"/>
</svg>
