<svg width="60" height="60" viewBox="0 0 60 60" fill="none" xmlns="http://www.w3.org/2000/svg">
<path d="M30 0C13.432 0 0 13.432 0 30C0 46.568 13.432 60 30 60C46.568 60 60 46.568 60 30C60 13.432 46.568 0 30 0ZM40 40.326V46H20C20.2159 43.8534 20.8799 41.776 21.949 39.902C23.032 37.98 25.17 35.435 28.365 32.259C30.936 29.695 32.513 27.956 33.096 27.042C33.88 25.782 34.273 24.534 34.273 23.304C34.273 21.941 33.931 20.894 33.248 20.161C32.565 19.428 31.621 19.063 30.416 19.063C29.225 19.063 28.276 19.448 27.573 20.215C26.869 20.983 26.463 22.26 26.355 24.041L20.669 23.432C21.007 20.071 22.07 17.659 23.857 16.194C25.645 14.732 27.878 14 30.559 14C33.495 14 35.805 14.848 37.483 16.543C39.161 18.238 40 20.348 40 22.869C40 24.303 39.76 25.67 39.279 26.967C38.799 28.266 38.037 29.623 36.995 31.043C36.304 31.984 35.058 33.34 33.258 35.107C31.459 36.877 30.318 38.05 29.838 38.63C29.394 39.1553 29.0028 39.723 28.67 40.325H40V40.326Z" fill="#55d48a"/>
</svg>
